<svg xmlns="http://www.w3.org/2000/svg" viewBox="-273.485 -216.105 670.465 636.5" width="670.465" height="636.5"><title>Neo4j Graph Visualization</title><desc>Created using Neo4j (http://www.neo4j.com/)</desc><g class="layer relationships"><g class="relationship" transform="translate(33.8331 105.123) rotate(436.613)"><path class="outline" fill="#a5abb6" stroke="none" d="M 25 0.5 L 45.3756 0.5 L 45.3756 -0.5 L 25 -0.5 Z M 92.2856 0.5 L 112.661 0.5 L 112.661 3.5 L 119.661 0 L 112.661 -3.5 L 112.661 -0.5 L 92.2856 -0.5 Z" /><text font-family="sans-serif" font-size="8px" fill="#000000" pointer-events="none" text-anchor="middle" x="68.8306" y="3">DIRECTED</text></g><g class="relationship" transform="translate(101.549 391.395) rotate(256.768)"><path class="outline" fill="#a5abb6" stroke="none" d="M 25 0.5 L 52.4606 0.5 L 52.4606 -0.5 L 25 -0.5 Z M 90.0506 0.5 L 117.511 0.5 L 117.511 3.5 L 124.511 0 L 117.511 -3.5 L 117.511 -0.5 L 90.0506 -0.5 Z" /><text font-family="sans-serif" font-size="8px" fill="#000000" pointer-events="none" text-anchor="middle" transform="rotate(180 71.2556 0)" x="71.2556" y="3">PLAYED</text></g><g class="relationship" transform="translate(33.8331 105.123) rotate(407.956)"><path class="outline" fill="#a5abb6" stroke="none" d="M 25 0.5 L 42.3234 0.5 L 42.3234 -0.5 L 25 -0.5 Z M 89.2334 0.5 L 106.557 0.5 L 106.557 3.5 L 113.557 0 L 106.557 -3.5 L 106.557 -0.5 L 89.2334 -0.5 Z" /><text font-family="sans-serif" font-size="8px" fill="#000000" pointer-events="none" text-anchor="middle" x="65.7784" y="3">DIRECTED</text></g><g class="relationship" transform="translate(212.02 333.496) rotate(235.762)"><path class="outline" fill="#a5abb6" stroke="none" d="M 25 0.5 L 53.5943 0.5 L 53.5943 -0.5 L 25 -0.5 Z M 91.1843 0.5 L 119.779 0.5 L 119.779 3.5 L 126.779 0 L 119.779 -3.5 L 119.779 -0.5 L 91.1843 -0.5 Z" /><text font-family="sans-serif" font-size="8px" fill="#000000" pointer-events="none" text-anchor="middle" transform="rotate(180 72.3893 0)" x="72.3893" y="3">PLAYED</text></g><g class="relationship" transform="translate(33.8331 105.123) rotate(185.167)"><path class="outline" fill="#a5abb6" stroke="none" d="M 25 0.5 L 58.7682 0.5 L 58.7682 -0.5 L 25 -0.5 Z M 105.678 0.5 L 139.446 0.5 L 139.446 3.5 L 146.446 0 L 139.446 -3.5 L 139.446 -0.5 L 105.678 -0.5 Z" /><text font-family="sans-serif" font-size="8px" fill="#000000" pointer-events="none" text-anchor="middle" transform="rotate(180 82.2232 0)" x="82.2232" y="3">DIRECTED</text></g><g class="relationship" transform="translate(-244.485 113.775) rotate(347.376)"><path class="outline" fill="#a5abb6" stroke="none" d="M 25 0.5 L 32.8215 0.5 L 32.8215 -0.5 L 25 -0.5 Z M 70.4115 0.5 L 78.233 0.5 L 78.233 3.5 L 85.233 0 L 78.233 -3.5 L 78.233 -0.5 L 70.4115 -0.5 Z" /><text font-family="sans-serif" font-size="8px" fill="#000000" pointer-events="none" text-anchor="middle" x="51.6165" y="3">PLAYED</text></g><g class="relationship" transform="translate(33.8331 105.123) rotate(524.738)"><path class="outline" fill="#a5abb6" stroke="none" d="M 25 0.5 L 62.6688 0.5 L 62.6688 -0.5 L 25 -0.5 Z M 109.579 0.5 L 147.248 0.5 L 147.248 3.5 L 154.248 0 L 147.248 -3.5 L 147.248 -0.5 L 109.579 -0.5 Z" /><text font-family="sans-serif" font-size="8px" fill="#000000" pointer-events="none" text-anchor="middle" transform="rotate(180 86.1238 0)" x="86.1238" y="3">DIRECTED</text></g><g class="relationship" transform="translate(-244.485 113.775) rotate(380.083)"><path class="outline" fill="#a5abb6" stroke="none" d="M 25 0.5 L 33.8124 0.5 L 33.8124 -0.5 L 25 -0.5 Z M 71.4024 0.5 L 80.2147 0.5 L 80.2147 3.5 L 87.2147 0 L 80.2147 -3.5 L 80.2147 -0.5 L 71.4024 -0.5 Z" /><text font-family="sans-serif" font-size="8px" fill="#000000" pointer-events="none" text-anchor="middle" x="52.6074" y="3">PLAYED</text></g><g class="relationship" transform="translate(33.8331 105.123) rotate(386.927)"><path class="outline" fill="#a5abb6" stroke="none" d="M 25 0.5 L 138.881 0.5 L 138.881 -0.5 L 25 -0.5 Z M 185.791 0.5 L 299.672 0.5 L 299.672 3.5 L 306.672 0 L 299.672 -3.5 L 299.672 -0.5 L 185.791 -0.5 Z" /><text font-family="sans-serif" font-size="8px" fill="#000000" pointer-events="none" text-anchor="middle" x="162.3358" y="3">DIRECTED</text></g><g class="relationship" transform="translate(367.98 115.441) rotate(465.363)"><path class="outline" fill="#a5abb6" stroke="none" d="M 25 0.5 L 50.2368 0.5 L 50.2368 -0.5 L 25 -0.5 Z M 87.8268 0.5 L 113.064 0.5 L 113.064 3.5 L 120.064 0 L 113.064 -3.5 L 113.064 -0.5 L 87.8268 -0.5 Z" /><text font-family="sans-serif" font-size="8px" fill="#000000" pointer-events="none" text-anchor="middle" transform="rotate(180 69.0318 0)" x="69.0318" y="3">PLAYED</text></g><g class="relationship" transform="translate(33.8331 105.123) rotate(369.079)"><path class="outline" fill="#a5abb6" stroke="none" d="M 25 0.5 L 80.1709 0.5 L 80.1709 -0.5 L 25 -0.5 Z M 127.081 0.5 L 182.252 0.5 L 182.252 3.5 L 189.252 0 L 182.252 -3.5 L 182.252 -0.5 L 127.081 -0.5 Z" /><text font-family="sans-serif" font-size="8px" fill="#000000" pointer-events="none" text-anchor="middle" x="103.6259" y="3">DIRECTED</text></g><g class="relationship" transform="translate(367.98 115.441) rotate(529.151)"><path class="outline" fill="#a5abb6" stroke="none" d="M 25 0.5 L 40.1103 0.5 L 40.1103 -0.5 L 25 -0.5 Z M 77.7003 0.5 L 92.8105 0.5 L 92.8105 3.5 L 99.8105 0 L 92.8105 -3.5 L 92.8105 -0.5 L 77.7003 -0.5 Z" /><text font-family="sans-serif" font-size="8px" fill="#000000" pointer-events="none" text-anchor="middle" transform="rotate(180 58.9053 0)" x="58.9053" y="3">PLAYED</text></g><g class="relationship" transform="translate(33.8331 105.123) rotate(327.632)"><path class="outline" fill="#a5abb6" stroke="none" d="M 25 0.5 L 39.9483 0.5 L 39.9483 -0.5 L 25 -0.5 Z M 86.8583 0.5 L 101.807 0.5 L 101.807 3.5 L 108.807 0 L 101.807 -3.5 L 101.807 -0.5 L 86.8583 -0.5 Z" /><text font-family="sans-serif" font-size="8px" fill="#000000" pointer-events="none" text-anchor="middle" x="63.4033" y="3">DIRECTED</text></g><g class="relationship" transform="translate(272.808 -71.5673) rotate(500.17)"><path class="outline" fill="#a5abb6" stroke="none" d="M 25 0.5 L 59.7147 0.5 L 59.7147 -0.5 L 25 -0.5 Z M 97.3047 0.5 L 132.019 0.5 L 132.019 3.5 L 139.019 0 L 132.019 -3.5 L 132.019 -0.5 L 97.3047 -0.5 Z" /><text font-family="sans-serif" font-size="8px" fill="#000000" pointer-events="none" text-anchor="middle" transform="rotate(180 78.5097 0)" x="78.5097" y="3">PLAYED</text></g><g class="relationship" transform="translate(33.8331 105.123) rotate(299.517)"><path class="outline" fill="#a5abb6" stroke="none" d="M 25 0.5 L 47.6513 0.5 L 47.6513 -0.5 L 25 -0.5 Z M 94.5613 0.5 L 117.213 0.5 L 117.213 3.5 L 124.213 0 L 117.213 -3.5 L 117.213 -0.5 L 94.5613 -0.5 Z" /><text font-family="sans-serif" font-size="8px" fill="#000000" pointer-events="none" text-anchor="middle" x="71.1063" y="3">DIRECTED</text></g><g class="relationship" transform="translate(181.865 -157.978) rotate(479.215)"><path class="outline" fill="#a5abb6" stroke="none" d="M 25 0.5 L 54.0425 0.5 L 54.0425 -0.5 L 25 -0.5 Z M 91.6325 0.5 L 120.675 0.5 L 120.675 3.5 L 127.675 0 L 120.675 -3.5 L 120.675 -0.5 L 91.6325 -0.5 Z" /><text font-family="sans-serif" font-size="8px" fill="#000000" pointer-events="none" text-anchor="middle" transform="rotate(180 72.8375 0)" x="72.8375" y="3">PLAYED</text></g><g class="relationship" transform="translate(33.8331 105.123) rotate(199.447)"><path class="outline" fill="#a5abb6" stroke="none" d="M 25 0.5 L 77.4015 0.5 L 77.4015 -0.5 L 25 -0.5 Z M 124.312 0.5 L 176.713 0.5 L 176.713 3.5 L 183.713 0 L 176.713 -3.5 L 176.713 -0.5 L 124.312 -0.5 Z" /><text font-family="sans-serif" font-size="8px" fill="#000000" pointer-events="none" text-anchor="middle" transform="rotate(180 100.857 0)" x="100.8565" y="3">DIRECTED</text></g><g class="relationship" transform="translate(-244.485 113.775) rotate(316.21)"><path class="outline" fill="#a5abb6" stroke="none" d="M 25 0.5 L 34.1625 0.5 L 34.1625 -0.5 L 25 -0.5 Z M 71.7525 0.5 L 80.915 0.5 L 80.915 3.5 L 87.915 0 L 80.915 -3.5 L 80.915 -0.5 L 71.7525 -0.5 Z" /><text font-family="sans-serif" font-size="8px" fill="#000000" pointer-events="none" text-anchor="middle" x="52.9575" y="3">PLAYED</text></g><g class="relationship" transform="translate(33.8331 105.123) rotate(272.587)"><path class="outline" fill="#a5abb6" stroke="none" d="M 25 0.5 L 45.5832 0.5 L 45.5832 -0.5 L 25 -0.5 Z M 92.4932 0.5 L 113.076 0.5 L 113.076 3.5 L 120.076 0 L 113.076 -3.5 L 113.076 -0.5 L 92.4932 -0.5 Z" /><text font-family="sans-serif" font-size="8px" fill="#000000" pointer-events="none" text-anchor="middle" x="69.0382" y="3">DIRECTED</text></g><g class="relationship" transform="translate(57.9525 -187.105) rotate(456.803)"><path class="outline" fill="#a5abb6" stroke="none" d="M 25 0.5 L 51.877 0.5 L 51.877 -0.5 L 25 -0.5 Z M 89.467 0.5 L 116.344 0.5 L 116.344 3.5 L 123.344 0 L 116.344 -3.5 L 116.344 -0.5 L 89.467 -0.5 Z" /><text font-family="sans-serif" font-size="8px" fill="#000000" pointer-events="none" text-anchor="middle" transform="rotate(180 70.672 0)" x="70.672" y="3">PLAYED</text></g><g class="relationship" transform="translate(33.8331 105.123) rotate(208.781)"><path class="outline" fill="#a5abb6" stroke="none" d="M 25 0.5 L 105.399 0.5 L 105.399 -0.5 L 25 -0.5 Z M 152.309 0.5 L 232.709 0.5 L 232.709 3.5 L 239.709 0 L 232.709 -3.5 L 232.709 -0.5 L 152.309 -0.5 Z" /><text font-family="sans-serif" font-size="8px" fill="#000000" pointer-events="none" text-anchor="middle" transform="rotate(180 128.854 0)" x="128.8543" y="3">DIRECTED</text></g><g class="relationship" transform="translate(-244.485 113.775) rotate(288.792)"><path class="outline" fill="#a5abb6" stroke="none" d="M 25 0.5 L 49.587 0.5 L 49.587 -0.5 L 25 -0.5 Z M 87.177 0.5 L 111.764 0.5 L 111.764 3.5 L 118.764 0 L 111.764 -3.5 L 111.764 -0.5 L 87.177 -0.5 Z" /><text font-family="sans-serif" font-size="8px" fill="#000000" pointer-events="none" text-anchor="middle" x="68.382" y="3">PLAYED</text></g><g class="relationship" transform="translate(33.8331 105.123) rotate(336.23)"><path class="outline" fill="#a5abb6" stroke="none" d="M 25 0.5 L 88.2647 0.5 L 88.2647 -0.5 L 25 -0.5 Z M 135.175 0.5 L 198.439 0.5 L 198.439 3.5 L 205.439 0 L 198.439 -3.5 L 198.439 -0.5 L 135.175 -0.5 Z" /><text font-family="sans-serif" font-size="8px" fill="#000000" pointer-events="none" text-anchor="middle" x="111.7197" y="3">DIRECTED</text></g><g class="relationship" transform="translate(367.98 115.441) rotate(219.939)"><path class="outline" fill="#a5abb6" stroke="none" d="M 25 0.5 L 58.0822 0.5 L 58.0822 -0.5 L 25 -0.5 Z M 95.6722 0.5 L 128.754 0.5 L 128.754 3.5 L 135.754 0 L 128.754 -3.5 L 128.754 -0.5 L 95.6722 -0.5 Z" /><text font-family="sans-serif" font-size="8px" fill="#000000" pointer-events="none" text-anchor="middle" transform="rotate(180 76.8772 0)" x="76.8772" y="3">PLAYED</text></g><g class="relationship" transform="translate(33.8331 105.123) rotate(217.414)"><path class="outline" fill="#a5abb6" stroke="none" d="M 25 0.5 L 139.999 0.5 L 139.999 -0.5 L 25 -0.5 Z M 186.909 0.5 L 301.909 0.5 L 301.909 3.5 L 308.909 0 L 301.909 -3.5 L 301.909 -0.5 L 186.909 -0.5 Z" /><text font-family="sans-serif" font-size="8px" fill="#000000" pointer-events="none" text-anchor="middle" transform="rotate(180 163.454 0)" x="163.4543" y="3">DIRECTED</text></g><g class="relationship" transform="translate(-244.485 113.775) rotate(273.545)"><path class="outline" fill="#a5abb6" stroke="none" d="M 25 0.5 L 83.6709 0.5 L 83.6709 -0.5 L 25 -0.5 Z M 121.261 0.5 L 179.932 0.5 L 179.932 3.5 L 186.932 0 L 179.932 -3.5 L 179.932 -0.5 L 121.261 -0.5 Z" /><text font-family="sans-serif" font-size="8px" fill="#000000" pointer-events="none" text-anchor="middle" x="102.4659" y="3">PLAYED</text></g><g class="relationship" transform="translate(33.8331 105.123) rotate(350.799)"><path class="outline" fill="#a5abb6" stroke="none" d="M 25 0.5 L 73.123 0.5 L 73.123 -0.5 L 25 -0.5 Z M 120.033 0.5 L 168.156 0.5 L 168.156 3.5 L 175.156 0 L 168.156 -3.5 L 168.156 -0.5 L 120.033 -0.5 Z" /><text font-family="sans-serif" font-size="8px" fill="#000000" pointer-events="none" text-anchor="middle" x="96.578" y="3">DIRECTED</text></g><g class="relationship" transform="translate(367.98 115.441) rotate(197.218)"><path class="outline" fill="#a5abb6" stroke="none" d="M 25 0.5 L 49.192 0.5 L 49.192 -0.5 L 25 -0.5 Z M 86.782 0.5 L 110.974 0.5 L 110.974 3.5 L 117.974 0 L 110.974 -3.5 L 110.974 -0.5 L 86.782 -0.5 Z" /><text font-family="sans-serif" font-size="8px" fill="#000000" pointer-events="none" text-anchor="middle" transform="rotate(180 67.987 0)" x="67.987" y="3">PLAYED</text></g><g class="relationship" transform="translate(33.8331 105.123) rotate(507.007)"><path class="outline" fill="#a5abb6" stroke="none" d="M 25 0.5 L 71.7527 0.5 L 71.7527 -0.5 L 25 -0.5 Z M 118.663 0.5 L 165.415 0.5 L 165.415 3.5 L 172.415 0 L 165.415 -3.5 L 165.415 -0.5 L 118.663 -0.5 Z" /><text font-family="sans-serif" font-size="8px" fill="#000000" pointer-events="none" text-anchor="middle" transform="rotate(180 95.2077 0)" x="95.2077" y="3">DIRECTED</text></g><g class="relationship" transform="translate(-244.485 113.775) rotate(401.244)"><path class="outline" fill="#a5abb6" stroke="none" d="M 25 0.5 L 52.6733 0.5 L 52.6733 -0.5 L 25 -0.5 Z M 90.2633 0.5 L 117.937 0.5 L 117.937 3.5 L 124.937 0 L 117.937 -3.5 L 117.937 -0.5 L 90.2633 -0.5 Z" /><text font-family="sans-serif" font-size="8px" fill="#000000" pointer-events="none" text-anchor="middle" x="71.4683" y="3">PLAYED</text></g><g class="relationship" transform="translate(33.8331 105.123) rotate(490.407)"><path class="outline" fill="#a5abb6" stroke="none" d="M 25 0.5 L 93.1706 0.5 L 93.1706 -0.5 L 25 -0.5 Z M 140.081 0.5 L 208.251 0.5 L 208.251 3.5 L 215.251 0 L 208.251 -3.5 L 208.251 -0.5 L 140.081 -0.5 Z" /><text font-family="sans-serif" font-size="8px" fill="#000000" pointer-events="none" text-anchor="middle" transform="rotate(180 116.626 0)" x="116.6256" y="3">DIRECTED</text></g><g class="relationship" transform="translate(-244.485 113.775) rotate(414.88)"><path class="outline" fill="#a5abb6" stroke="none" d="M 25 0.5 L 84.2449 0.5 L 84.2449 -0.5 L 25 -0.5 Z M 121.835 0.5 L 181.08 0.5 L 181.08 3.5 L 188.08 0 L 181.08 -3.5 L 181.08 -0.5 L 121.835 -0.5 Z" /><text font-family="sans-serif" font-size="8px" fill="#000000" pointer-events="none" text-anchor="middle" x="103.0399" y="3">PLAYED</text></g><g class="relationship" transform="translate(33.8331 105.123) rotate(242.738)"><path class="outline" fill="#a5abb6" stroke="none" d="M 25 0.5 L 40.4596 0.5 L 40.4596 -0.5 L 25 -0.5 Z M 87.3696 0.5 L 102.829 0.5 L 102.829 3.5 L 109.829 0 L 102.829 -3.5 L 102.829 -0.5 L 87.3696 -0.5 Z" /><text font-family="sans-serif" font-size="8px" fill="#000000" pointer-events="none" text-anchor="middle" transform="rotate(180 63.9146 0)" x="63.9146" y="3">DIRECTED</text></g><g class="relationship" transform="translate(-66.1898 -152.86) rotate(434.517)"><path class="outline" fill="#a5abb6" stroke="none" d="M 25 0.5 L 49.3713 0.5 L 49.3713 -0.5 L 25 -0.5 Z M 86.9613 0.5 L 111.333 0.5 L 111.333 3.5 L 118.333 0 L 111.333 -3.5 L 111.333 -0.5 L 86.9613 -0.5 Z" /><text font-family="sans-serif" font-size="8px" fill="#000000" pointer-events="none" text-anchor="middle" x="68.1663" y="3">PLAYED</text></g><g class="relationship" transform="translate(33.8331 105.123) rotate(464.826)"><path class="outline" fill="#a5abb6" stroke="none" d="M 25 0.5 L 43.2673 0.5 L 43.2673 -0.5 L 25 -0.5 Z M 90.1773 0.5 L 108.445 0.5 L 108.445 3.5 L 115.445 0 L 108.445 -3.5 L 108.445 -0.5 L 90.1773 -0.5 Z" /><text font-family="sans-serif" font-size="8px" fill="#000000" pointer-events="none" text-anchor="middle" transform="rotate(180 66.7223 0)" x="66.7223" y="3">DIRECTED</text></g><g class="relationship" transform="translate(-29.1459 385.718) rotate(280.576)"><path class="outline" fill="#a5abb6" stroke="none" d="M 25 0.5 L 51.3695 0.5 L 51.3695 -0.5 L 25 -0.5 Z M 88.9595 0.5 L 115.329 0.5 L 115.329 3.5 L 122.329 0 L 115.329 -3.5 L 115.329 -0.5 L 88.9595 -0.5 Z" /><text font-family="sans-serif" font-size="8px" fill="#000000" pointer-events="none" text-anchor="middle" x="70.1645" y="3">PLAYED</text></g><g class="relationship" transform="translate(33.8331 105.123) rotate(379.376)"><path class="outline" fill="#a5abb6" stroke="none" d="M 25 0.5 L 100.39 0.5 L 100.39 -0.5 L 25 -0.5 Z M 147.3 0.5 L 222.691 0.5 L 222.691 3.5 L 229.691 0 L 222.691 -3.5 L 222.691 -0.5 L 147.3 -0.5 Z" /><text font-family="sans-serif" font-size="8px" fill="#000000" pointer-events="none" text-anchor="middle" x="123.8453" y="3">DIRECTED</text></g><g class="relationship" transform="translate(367.98 115.441) rotate(501.686)"><path class="outline" fill="#a5abb6" stroke="none" d="M 25 0.5 L 37.5304 0.5 L 37.5304 -0.5 L 25 -0.5 Z M 75.1204 0.5 L 87.6508 0.5 L 87.6508 3.5 L 94.6508 0 L 87.6508 -3.5 L 87.6508 -0.5 L 75.1204 -0.5 Z" /><text font-family="sans-serif" font-size="8px" fill="#000000" pointer-events="none" text-anchor="middle" transform="rotate(180 56.3254 0)" x="56.3254" y="3">PLAYED</text></g></g><g class="layer nodes"><g class="node" transform="translate(33.8331 105.123)"><circle class="outline" fill="#8dcc93" stroke="#5db665" stroke-width="2px" cx="0" cy="0" r="25" /><text font-family="sans-serif" font-size="25px" fill="#604a0e" pointer-events="none" text-anchor="middle" dy="1.5625" /><text font-family="sans-serif" font-size="25px" fill="#604a0e" pointer-events="none" text-anchor="middle" dy="1.5625" /><text font-family="sans-serif" font-size="10px" fill="#604a0e" pointer-events="none" text-anchor="middle" y="0"> Martin</text><text font-family="sans-serif" font-size="10px" fill="#604a0e" pointer-events="none" text-anchor="middle" y="10"> Scorsese</text></g><g class="node" transform="translate(67.3264 245.853)"><circle class="outline" fill="#57c7e3" stroke="#23b3d7" stroke-width="2px" cx="0" cy="0" r="25" /><text font-family="sans-serif" font-size="25px" fill="#ffffff" pointer-events="none" text-anchor="middle" dy="1.5625" /><text font-family="sans-serif" font-size="25px" fill="#ffffff" pointer-events="none" text-anchor="middle" dy="1.5625" /><text font-family="sans-serif" font-size="10px" fill="#ffffff" pointer-events="none" text-anchor="middle" y="0"> The Last</text><text font-family="sans-serif" font-size="10px" fill="#ffffff" pointer-events="none" text-anchor="middle" y="10"> Waltz </text></g><g class="node" transform="translate(101.549 391.395)"><circle class="outline" fill="#d9c8ae" stroke="#c0a378" stroke-width="2px" cx="0" cy="0" r="25" /><text font-family="sans-serif" font-size="25px" fill="#604a0e" pointer-events="none" text-anchor="middle" dy="1.5625" /><text font-family="sans-serif" font-size="25px" fill="#604a0e" pointer-events="none" text-anchor="middle" dy="1.5625" /><text font-family="sans-serif" font-size="10px" fill="#604a0e" pointer-events="none" text-anchor="middle" y="0"> Ringo</text><text font-family="sans-serif" font-size="10px" fill="#604a0e" pointer-events="none" text-anchor="middle" y="10"> Starr</text></g><g class="node" transform="translate(126.625 208.019)"><circle class="outline" fill="#57c7e3" stroke="#23b3d7" stroke-width="2px" cx="0" cy="0" r="25" /><text font-family="sans-serif" font-size="25px" fill="#ffffff" pointer-events="none" text-anchor="middle" dy="1.5625" /><text font-family="sans-serif" font-size="10px" fill="#ffffff" pointer-events="none" text-anchor="middle" y="5"> Kundun </text></g><g class="node" transform="translate(212.02 333.496)"><circle class="outline" fill="#d9c8ae" stroke="#c0a378" stroke-width="2px" cx="0" cy="0" r="25" /><text font-family="sans-serif" font-size="25px" fill="#604a0e" pointer-events="none" text-anchor="middle" dy="1.5625" /><text font-family="sans-serif" font-size="25px" fill="#604a0e" pointer-events="none" text-anchor="middle" dy="1.5625" /><text font-family="sans-serif" font-size="25px" fill="#604a0e" pointer-events="none" text-anchor="middle" dy="1.5625" /><text font-family="sans-serif" font-size="10px" fill="#604a0e" pointer-events="none" text-anchor="middle" y="-5"> Tenzin</text><text font-family="sans-serif" font-size="10px" fill="#604a0e" pointer-events="none" text-anchor="middle" y="5"> Thuthob</text><text font-family="sans-serif" font-size="10px" fill="#604a0e" pointer-events="none" text-anchor="middle" y="15"> Tsarong</text></g><g class="node" transform="translate(-136.917 89.6831)"><circle class="outline" fill="#57c7e3" stroke="#23b3d7" stroke-width="2px" cx="0" cy="0" r="25" /><text font-family="sans-serif" font-size="25px" fill="#ffffff" pointer-events="none" text-anchor="middle" dy="1.5625" /><text font-family="sans-serif" font-size="10px" fill="#ffffff" pointer-events="none" text-anchor="middle" y="5"> Casino </text></g><g class="node" transform="translate(-244.485 113.775)"><circle class="outline" fill="#d9c8ae" stroke="#c0a378" stroke-width="2px" cx="0" cy="0" r="25" /><text font-family="sans-serif" font-size="25px" fill="#604a0e" pointer-events="none" text-anchor="middle" dy="1.5625" /><text font-family="sans-serif" font-size="25px" fill="#604a0e" pointer-events="none" text-anchor="middle" dy="1.5625" /><text font-family="sans-serif" font-size="10px" fill="#604a0e" pointer-events="none" text-anchor="middle" y="0"> Robert</text><text font-family="sans-serif" font-size="10px" fill="#604a0e" pointer-events="none" text-anchor="middle" y="10"> De Niro</text></g><g class="node" transform="translate(-139.093 152.307)"><circle class="outline" fill="#57c7e3" stroke="#23b3d7" stroke-width="2px" cx="0" cy="0" r="25" /><text font-family="sans-serif" font-size="25px" fill="#ffffff" pointer-events="none" text-anchor="middle" dy="1.5625" /><text font-family="sans-serif" font-size="25px" fill="#ffffff" pointer-events="none" text-anchor="middle" dy="1.5625" /><text font-family="sans-serif" font-size="25px" fill="#ffffff" pointer-events="none" text-anchor="middle" dy="1.5625" /><text font-family="sans-serif" font-size="10px" fill="#ffffff" pointer-events="none" text-anchor="middle" y="-5"> New</text><text font-family="sans-serif" font-size="10px" fill="#ffffff" pointer-events="none" text-anchor="middle" y="5"> York, New</text><text font-family="sans-serif" font-size="10px" fill="#ffffff" pointer-events="none" text-anchor="middle" y="15"> York </text></g><g class="node" transform="translate(329.547 255.321)"><circle class="outline" fill="#57c7e3" stroke="#23b3d7" stroke-width="2px" cx="0" cy="0" r="25" /><text font-family="sans-serif" font-size="25px" fill="#ffffff" pointer-events="none" text-anchor="middle" dy="1.5625" /><text font-family="sans-serif" font-size="25px" fill="#ffffff" pointer-events="none" text-anchor="middle" dy="1.5625" /><text font-family="sans-serif" font-size="25px" fill="#ffffff" pointer-events="none" text-anchor="middle" dy="1.5625" /><text font-family="sans-serif" font-size="25px" fill="#ffffff" pointer-events="none" text-anchor="middle" dy="1.5625" /><text font-family="sans-serif" font-size="10px" fill="#ffffff" pointer-events="none" text-anchor="middle" y="-10"> The</text><text font-family="sans-serif" font-size="10px" fill="#ffffff" pointer-events="none" text-anchor="middle" y="0"> Wolf of</text><text font-family="sans-serif" font-size="10px" fill="#ffffff" pointer-events="none" text-anchor="middle" y="10"> Wall</text><text font-family="sans-serif" font-size="10px" fill="#ffffff" pointer-events="none" text-anchor="middle" y="20"> Stre…</text></g><g class="node" transform="translate(367.98 115.441)"><circle class="outline" fill="#d9c8ae" stroke="#c0a378" stroke-width="2px" cx="0" cy="0" r="25" /><text font-family="sans-serif" font-size="25px" fill="#604a0e" pointer-events="none" text-anchor="middle" dy="1.5625" /><text font-family="sans-serif" font-size="25px" fill="#604a0e" pointer-events="none" text-anchor="middle" dy="1.5625" /><text font-family="sans-serif" font-size="10px" fill="#604a0e" pointer-events="none" text-anchor="middle" y="0"> Leonardo</text><text font-family="sans-serif" font-size="10px" fill="#604a0e" pointer-events="none" text-anchor="middle" y="10"> DiCaprio</text></g><g class="node" transform="translate(245.4 138.933)"><circle class="outline" fill="#57c7e3" stroke="#23b3d7" stroke-width="2px" cx="0" cy="0" r="25" /><text font-family="sans-serif" font-size="25px" fill="#ffffff" pointer-events="none" text-anchor="middle" dy="1.5625" /><text font-family="sans-serif" font-size="25px" fill="#ffffff" pointer-events="none" text-anchor="middle" dy="1.5625" /><text font-family="sans-serif" font-size="10px" fill="#ffffff" pointer-events="none" text-anchor="middle" y="0"> The</text><text font-family="sans-serif" font-size="10px" fill="#ffffff" pointer-events="none" text-anchor="middle" y="10"> Departe…</text></g><g class="node" transform="translate(146.85 33.4893)"><circle class="outline" fill="#57c7e3" stroke="#23b3d7" stroke-width="2px" cx="0" cy="0" r="25" /><text font-family="sans-serif" font-size="25px" fill="#ffffff" pointer-events="none" text-anchor="middle" dy="1.5625" /><text font-family="sans-serif" font-size="25px" fill="#ffffff" pointer-events="none" text-anchor="middle" dy="1.5625" /><text font-family="sans-serif" font-size="10px" fill="#ffffff" pointer-events="none" text-anchor="middle" y="0"> Shine a</text><text font-family="sans-serif" font-size="10px" fill="#ffffff" pointer-events="none" text-anchor="middle" y="10"> Light </text></g><g class="node" transform="translate(272.808 -71.5673)"><circle class="outline" fill="#d9c8ae" stroke="#c0a378" stroke-width="2px" cx="0" cy="0" r="25" /><text font-family="sans-serif" font-size="25px" fill="#604a0e" pointer-events="none" text-anchor="middle" dy="1.5625" /><text font-family="sans-serif" font-size="25px" fill="#604a0e" pointer-events="none" text-anchor="middle" dy="1.5625" /><text font-family="sans-serif" font-size="10px" fill="#604a0e" pointer-events="none" text-anchor="middle" y="0"> Mick</text><text font-family="sans-serif" font-size="10px" fill="#604a0e" pointer-events="none" text-anchor="middle" y="10"> Jagger</text></g><g class="node" transform="translate(107.347 -24.7236)"><circle class="outline" fill="#57c7e3" stroke="#23b3d7" stroke-width="2px" cx="0" cy="0" r="25" /><text font-family="sans-serif" font-size="25px" fill="#ffffff" pointer-events="none" text-anchor="middle" dy="1.5625" /><text font-family="sans-serif" font-size="25px" fill="#ffffff" pointer-events="none" text-anchor="middle" dy="1.5625" /><text font-family="sans-serif" font-size="25px" fill="#ffffff" pointer-events="none" text-anchor="middle" dy="1.5625" /><text font-family="sans-serif" font-size="10px" fill="#ffffff" pointer-events="none" text-anchor="middle" y="-5"> The</text><text font-family="sans-serif" font-size="10px" fill="#ffffff" pointer-events="none" text-anchor="middle" y="5"> Color of</text><text font-family="sans-serif" font-size="10px" fill="#ffffff" pointer-events="none" text-anchor="middle" y="15"> Money </text></g><g class="node" transform="translate(181.865 -157.978)"><circle class="outline" fill="#d9c8ae" stroke="#c0a378" stroke-width="2px" cx="0" cy="0" r="25" /><text font-family="sans-serif" font-size="25px" fill="#604a0e" pointer-events="none" text-anchor="middle" dy="1.5625" /><text font-family="sans-serif" font-size="25px" fill="#604a0e" pointer-events="none" text-anchor="middle" dy="1.5625" /><text font-family="sans-serif" font-size="10px" fill="#604a0e" pointer-events="none" text-anchor="middle" y="0"> Tom</text><text font-family="sans-serif" font-size="10px" fill="#604a0e" pointer-events="none" text-anchor="middle" y="10"> Cruise</text></g><g class="node" transform="translate(-162.973 35.6363)"><circle class="outline" fill="#57c7e3" stroke="#23b3d7" stroke-width="2px" cx="0" cy="0" r="25" /><text font-family="sans-serif" font-size="25px" fill="#ffffff" pointer-events="none" text-anchor="middle" dy="1.5625" /><text font-family="sans-serif" font-size="25px" fill="#ffffff" pointer-events="none" text-anchor="middle" dy="1.5625" /><text font-family="sans-serif" font-size="10px" fill="#ffffff" pointer-events="none" text-anchor="middle" y="0"> Mean</text><text font-family="sans-serif" font-size="10px" fill="#ffffff" pointer-events="none" text-anchor="middle" y="10"> Streets </text></g><g class="node" transform="translate(40.3808 -39.8057)"><circle class="outline" fill="#57c7e3" stroke="#23b3d7" stroke-width="2px" cx="0" cy="0" r="25" /><text font-family="sans-serif" font-size="25px" fill="#ffffff" pointer-events="none" text-anchor="middle" dy="1.5625" /><text font-family="sans-serif" font-size="25px" fill="#ffffff" pointer-events="none" text-anchor="middle" dy="1.5625" /><text font-family="sans-serif" font-size="25px" fill="#ffffff" pointer-events="none" text-anchor="middle" dy="1.5625" /><text font-family="sans-serif" font-size="10px" fill="#ffffff" pointer-events="none" text-anchor="middle" y="-5"> The</text><text font-family="sans-serif" font-size="10px" fill="#ffffff" pointer-events="none" text-anchor="middle" y="5"> Age of</text><text font-family="sans-serif" font-size="10px" fill="#ffffff" pointer-events="none" text-anchor="middle" y="15"> Innoc…</text></g><g class="node" transform="translate(57.9525 -187.105)"><circle class="outline" fill="#d9c8ae" stroke="#c0a378" stroke-width="2px" cx="0" cy="0" r="25" /><text font-family="sans-serif" font-size="25px" fill="#604a0e" pointer-events="none" text-anchor="middle" dy="1.5625" /><text font-family="sans-serif" font-size="25px" fill="#604a0e" pointer-events="none" text-anchor="middle" dy="1.5625" /><text font-family="sans-serif" font-size="10px" fill="#604a0e" pointer-events="none" text-anchor="middle" y="0"> Richard</text><text font-family="sans-serif" font-size="10px" fill="#604a0e" pointer-events="none" text-anchor="middle" y="10"> E. Grant</text></g><g class="node" transform="translate(-198.175 -22.3256)"><circle class="outline" fill="#57c7e3" stroke="#23b3d7" stroke-width="2px" cx="0" cy="0" r="25" /><text font-family="sans-serif" font-size="25px" fill="#ffffff" pointer-events="none" text-anchor="middle" dy="1.5625" /><text font-family="sans-serif" font-size="25px" fill="#ffffff" pointer-events="none" text-anchor="middle" dy="1.5625" /><text font-family="sans-serif" font-size="10px" fill="#ffffff" pointer-events="none" text-anchor="middle" y="0"> Raging</text><text font-family="sans-serif" font-size="10px" fill="#ffffff" pointer-events="none" text-anchor="middle" y="10"> Bull </text></g><g class="node" transform="translate(244.725 12.2414)"><circle class="outline" fill="#57c7e3" stroke="#23b3d7" stroke-width="2px" cx="0" cy="0" r="25" /><text font-family="sans-serif" font-size="25px" fill="#ffffff" pointer-events="none" text-anchor="middle" dy="1.5625" /><text font-family="sans-serif" font-size="25px" fill="#ffffff" pointer-events="none" text-anchor="middle" dy="1.5625" /><text font-family="sans-serif" font-size="25px" fill="#ffffff" pointer-events="none" text-anchor="middle" dy="1.5625" /><text font-family="sans-serif" font-size="10px" fill="#ffffff" pointer-events="none" text-anchor="middle" y="-5"> Gangs</text><text font-family="sans-serif" font-size="10px" fill="#ffffff" pointer-events="none" text-anchor="middle" y="5"> of New</text><text font-family="sans-serif" font-size="10px" fill="#ffffff" pointer-events="none" text-anchor="middle" y="15"> York </text></g><g class="node" transform="translate(-231.379 -97.7509)"><circle class="outline" fill="#57c7e3" stroke="#23b3d7" stroke-width="2px" cx="0" cy="0" r="25" /><text font-family="sans-serif" font-size="25px" fill="#ffffff" pointer-events="none" text-anchor="middle" dy="1.5625" /><text font-family="sans-serif" font-size="25px" fill="#ffffff" pointer-events="none" text-anchor="middle" dy="1.5625" /><text font-family="sans-serif" font-size="10px" fill="#ffffff" pointer-events="none" text-anchor="middle" y="0"> Taxi</text><text font-family="sans-serif" font-size="10px" fill="#ffffff" pointer-events="none" text-anchor="middle" y="10"> Driver </text></g><g class="node" transform="translate(231.414 73.1185)"><circle class="outline" fill="#57c7e3" stroke="#23b3d7" stroke-width="2px" cx="0" cy="0" r="25" /><text font-family="sans-serif" font-size="25px" fill="#ffffff" pointer-events="none" text-anchor="middle" dy="1.5625" /><text font-family="sans-serif" font-size="25px" fill="#ffffff" pointer-events="none" text-anchor="middle" dy="1.5625" /><text font-family="sans-serif" font-size="10px" fill="#ffffff" pointer-events="none" text-anchor="middle" y="0"> The</text><text font-family="sans-serif" font-size="10px" fill="#ffffff" pointer-events="none" text-anchor="middle" y="10"> Aviator </text></g><g class="node" transform="translate(-131.746 212.624)"><circle class="outline" fill="#57c7e3" stroke="#23b3d7" stroke-width="2px" cx="0" cy="0" r="25" /><text font-family="sans-serif" font-size="25px" fill="#ffffff" pointer-events="none" text-anchor="middle" dy="1.5625" /><text font-family="sans-serif" font-size="10px" fill="#ffffff" pointer-events="none" text-anchor="middle" y="5"> Goodfell…</text></g><g class="node" transform="translate(-121.902 288.064)"><circle class="outline" fill="#57c7e3" stroke="#23b3d7" stroke-width="2px" cx="0" cy="0" r="25" /><text font-family="sans-serif" font-size="25px" fill="#ffffff" pointer-events="none" text-anchor="middle" dy="1.5625" /><text font-family="sans-serif" font-size="25px" fill="#ffffff" pointer-events="none" text-anchor="middle" dy="1.5625" /><text font-family="sans-serif" font-size="10px" fill="#ffffff" pointer-events="none" text-anchor="middle" y="0"> Cape</text><text font-family="sans-serif" font-size="10px" fill="#ffffff" pointer-events="none" text-anchor="middle" y="10"> Fear </text></g><g class="node" transform="translate(-27.9277 -14.7292)"><circle class="outline" fill="#57c7e3" stroke="#23b3d7" stroke-width="2px" cx="0" cy="0" r="25" /><text font-family="sans-serif" font-size="25px" fill="#ffffff" pointer-events="none" text-anchor="middle" dy="1.5625" /><text font-family="sans-serif" font-size="25px" fill="#ffffff" pointer-events="none" text-anchor="middle" dy="1.5625" /><text font-family="sans-serif" font-size="25px" fill="#ffffff" pointer-events="none" text-anchor="middle" dy="1.5625" /><text font-family="sans-serif" font-size="10px" fill="#ffffff" pointer-events="none" text-anchor="middle" y="-5"> The</text><text font-family="sans-serif" font-size="10px" fill="#ffffff" pointer-events="none" text-anchor="middle" y="5"> Last</text><text font-family="sans-serif" font-size="10px" fill="#ffffff" pointer-events="none" text-anchor="middle" y="15"> Tempt…</text></g><g class="node" transform="translate(-66.1898 -152.86)"><circle class="outline" fill="#d9c8ae" stroke="#c0a378" stroke-width="2px" cx="0" cy="0" r="25" /><text font-family="sans-serif" font-size="25px" fill="#604a0e" pointer-events="none" text-anchor="middle" dy="1.5625" /><text font-family="sans-serif" font-size="25px" fill="#604a0e" pointer-events="none" text-anchor="middle" dy="1.5625" /><text font-family="sans-serif" font-size="10px" fill="#604a0e" pointer-events="none" text-anchor="middle" y="0"> Irvin</text><text font-family="sans-serif" font-size="10px" fill="#604a0e" pointer-events="none" text-anchor="middle" y="10"> Kershner</text></g><g class="node" transform="translate(-2.10569 240.891)"><circle class="outline" fill="#57c7e3" stroke="#23b3d7" stroke-width="2px" cx="0" cy="0" r="25" /><text font-family="sans-serif" font-size="25px" fill="#ffffff" pointer-events="none" text-anchor="middle" dy="1.5625" /><text font-family="sans-serif" font-size="25px" fill="#ffffff" pointer-events="none" text-anchor="middle" dy="1.5625" /><text font-family="sans-serif" font-size="25px" fill="#ffffff" pointer-events="none" text-anchor="middle" dy="1.5625" /><text font-family="sans-serif" font-size="10px" fill="#ffffff" pointer-events="none" text-anchor="middle" y="-5"> Bringing</text><text font-family="sans-serif" font-size="10px" fill="#ffffff" pointer-events="none" text-anchor="middle" y="5"> Out the</text><text font-family="sans-serif" font-size="10px" fill="#ffffff" pointer-events="none" text-anchor="middle" y="15"> Dead </text></g><g class="node" transform="translate(-29.1459 385.718)"><circle class="outline" fill="#d9c8ae" stroke="#c0a378" stroke-width="2px" cx="0" cy="0" r="25" /><text font-family="sans-serif" font-size="25px" fill="#604a0e" pointer-events="none" text-anchor="middle" dy="1.5625" /><text font-family="sans-serif" font-size="25px" fill="#604a0e" pointer-events="none" text-anchor="middle" dy="1.5625" /><text font-family="sans-serif" font-size="10px" fill="#604a0e" pointer-events="none" text-anchor="middle" y="0"> Nicolas</text><text font-family="sans-serif" font-size="10px" fill="#604a0e" pointer-events="none" text-anchor="middle" y="10"> Cage</text></g><g class="node" transform="translate(274.099 189.62)"><circle class="outline" fill="#57c7e3" stroke="#23b3d7" stroke-width="2px" cx="0" cy="0" r="25" /><text font-family="sans-serif" font-size="25px" fill="#ffffff" pointer-events="none" text-anchor="middle" dy="1.5625" /><text font-family="sans-serif" font-size="25px" fill="#ffffff" pointer-events="none" text-anchor="middle" dy="1.5625" /><text font-family="sans-serif" font-size="10px" fill="#ffffff" pointer-events="none" text-anchor="middle" y="0"> Shutter</text><text font-family="sans-serif" font-size="10px" fill="#ffffff" pointer-events="none" text-anchor="middle" y="10"> Island </text></g></g></svg>